<svg width="55" height="54" viewBox="0 0 55 54" fill="none" xmlns="http://www.w3.org/2000/svg">
<g id="Vector">
<path d="M53.5 27C53.5 41.3594 41.8594 53 27.5 53C13.1406 53 1.5 41.3594 1.5 27C1.5 12.6406 13.1406 1 27.5 1C41.8594 1 53.5 12.6406 53.5 27Z" fill="#DC362E"/>
<path d="M17.1 17.9L27.5 28.3M27.5 28.3L37.9 38.7M27.5 28.3L17.1 38.7M27.5 28.3L37.9 17.9M53.5 27C53.5 41.3594 41.8594 53 27.5 53C13.1406 53 1.5 41.3594 1.5 27C1.5 12.6406 13.1406 1 27.5 1C41.8594 1 53.5 12.6406 53.5 27Z" stroke="white" stroke-width="2" stroke-linecap="round"/>
</g>
</svg>
